<svg width="20.000000" height="20.000000" viewBox="0 0 20 20" fill="none" xmlns="http://www.w3.org/2000/svg" xmlns:xlink="http://www.w3.org/1999/xlink">
	<desc>
			Created with Pixso.
	</desc>
	<defs>
		<clipPath id="clip27_271">
			<rect id="log-in-01" width="20.000000" height="20.000000" fill="white" fill-opacity="0"/>
		</clipPath>
	</defs>
	<rect id="log-in-01" width="20.000000" height="20.000000" fill="#FFFFFF" fill-opacity="0"/>
	<g clip-path="url(#clip27_271)">
		<path id="Accent" d="M12.5 2.5L13.5 2.5C14.9 2.5 15.6 2.5 16.13 2.77C16.6 3.01 16.98 3.39 17.22 3.86C17.5 4.39 17.5 5.09 17.5 6.5L17.5 13.5C17.5 14.9 17.5 15.6 17.22 16.13C16.98 16.6 16.6 16.98 16.13 17.22C15.6 17.5 14.9 17.5 13.5 17.5L12.5 17.5" stroke="#9FBAAE" stroke-opacity="1.000000" stroke-width="2.000000" stroke-linejoin="round" stroke-linecap="round"/>
		<path id="Icon" d="M8.33 5.83L12.5 10L8.33 14.16M2.5 10L12.5 10" stroke="#9FBAAE" stroke-opacity="1.000000" stroke-width="2.000000" stroke-linejoin="round"/>
	</g>
</svg>
